<svg width="128" height="128" viewBox="0 0 128 128" fill="none" xmlns="http://www.w3.org/2000/svg">
<path d="M123.737 63.7304L107.233 63.2824C100.249 63.0931 93.6806 61.2663 87.8889 58.1766C84.964 56.6168 83.6227 53.1515 84.7164 50.0229C86.5961 44.6488 89.6032 39.5875 93.7498 35.2082V35.2075C94.3484 34.5753 93.4253 33.6523 92.7931 34.2508L92.7925 34.2515C88.4131 38.3975 83.3525 41.4045 77.9784 43.2842C74.8492 44.3786 71.3838 43.0367 69.8241 40.1117C66.7349 34.32 64.9076 27.7513 64.7182 20.7677L64.2702 4.26324C64.2605 3.91225 63.7389 3.91225 63.7298 4.26324L63.2819 20.7677C63.0932 27.7287 61.2774 34.278 58.2057 40.0568C56.6453 42.9927 53.1645 44.3307 50.0282 43.2261C44.5642 41.3017 39.4066 38.2249 34.9361 33.9884C34.2988 33.3847 33.3835 34.2993 33.9879 34.9367V34.9373C38.2243 39.4078 41.3005 44.5654 43.2249 50.0294C44.3296 53.1651 42.9922 56.6459 40.0562 58.2063C34.2774 61.278 27.7282 63.0937 20.7671 63.2824L4.263 63.7304C3.91233 63.7401 3.91233 64.2611 4.263 64.2714L20.7671 64.7187C27.7507 64.9081 34.3195 66.7348 40.1112 69.8253C43.0355 71.385 44.378 74.8497 43.2837 77.9789C41.404 83.3524 38.3969 88.4137 34.2509 92.793L34.2497 92.7937C33.6511 93.4258 34.5748 94.3489 35.207 93.7503L35.2076 93.7497C39.5869 89.6037 44.6476 86.5967 50.0224 84.7176C53.1503 83.6226 56.6163 84.9652 58.176 87.8895C61.2651 93.6812 63.0925 100.25 63.2819 107.234L63.7298 123.738C63.7389 124.089 64.2605 124.089 64.2702 123.738L64.7182 107.234C64.9069 100.272 66.7227 93.7232 69.7943 87.9451C71.3547 85.0085 74.8356 83.6711 77.9719 84.7758C83.4352 86.6994 88.5928 89.7763 93.0633 94.0128C93.7013 94.6165 94.616 93.7019 94.0122 93.0645C89.7758 88.594 86.6989 83.4358 84.7746 77.9725C83.6699 74.8361 85.0079 71.3553 87.9445 69.7949C93.7226 66.7239 100.272 64.9075 107.233 64.7187L123.737 64.2714C124.088 64.2611 124.088 63.7401 123.737 63.7304" fill="#0E0F0E"/>
</svg>
